<svg xmlns="http://www.w3.org/2000/svg" viewBox="0 0 27.81 66.63"><defs><style>.cls-1,.cls-4{fill:none;stroke:#fff;stroke-miterlimit:10;}.cls-1{stroke-width:3px;}.cls-2{fill:#c200ff;}.cls-3{fill:#00008c;}.cls-4{stroke-width:2px;}</style></defs><title>Ativo 4</title><g id="Camada_2" data-name="Camada 2"><g id="Camada_1-2" data-name="Camada 1"><line class="cls-1" x1="13.95" y1="46.11" x2="13.95" y2="8.38"/><polyline class="cls-1" points="13.95 40.16 4.22 34.33 4.22 29.23"/><polyline class="cls-1" points="14.56 30.78 24.16 21.72 24.16 14.06"/><path class="cls-2" d="M21.91,61.32a1.43,1.43,0,0,1-.69.33l-13,3.46a.75.75,0,0,1-.66-.22,1,1,0,0,1-.25-.7V47.42a1,1,0,0,1,.19-.58,1.55,1.55,0,0,1,.72-.34l13-3.48a.78.78,0,0,1,.66.24.91.91,0,0,1,.25.69V60.74a1,1,0,0,1-.22.58"/><path class="cls-1" d="M21.91,61.32a1.43,1.43,0,0,1-.69.33l-13,3.46a.75.75,0,0,1-.66-.22,1,1,0,0,1-.25-.7V47.42a1,1,0,0,1,.19-.58,1.55,1.55,0,0,1,.73-.34l13-3.48a.78.78,0,0,1,.66.24.91.91,0,0,1,.25.7V60.74A1,1,0,0,1,21.91,61.32Z"/><path class="cls-3" d="M6.73,29.67a.57.57,0,0,1-.27.13l-5.1,1.36a.29.29,0,0,1-.26-.08A.39.39,0,0,1,1,30.8V24.23A.39.39,0,0,1,1.08,24a.6.6,0,0,1,.28-.13l5.1-1.36a.31.31,0,0,1,.26.09.35.35,0,0,1,.1.27v6.58a.41.41,0,0,1-.09.23"/><path class="cls-4" d="M6.73,29.67a.57.57,0,0,1-.27.13l-5.1,1.36a.29.29,0,0,1-.26-.08A.39.39,0,0,1,1,30.8V24.23A.39.39,0,0,1,1.08,24a.6.6,0,0,1,.28-.13l5.1-1.36a.31.31,0,0,1,.26.09.35.35,0,0,1,.1.27v6.58A.41.41,0,0,1,6.73,29.67Z"/><path class="cls-3" d="M16.73,8.17a.57.57,0,0,1-.27.13l-5.1,1.36a.29.29,0,0,1-.26-.08A.39.39,0,0,1,11,9.3V2.73a.39.39,0,0,1,.08-.23.6.6,0,0,1,.28-.13L16.46,1a.31.31,0,0,1,.26.09.35.35,0,0,1,.1.27V7.95a.41.41,0,0,1-.09.23"/><path class="cls-4" d="M16.73,8.17a.57.57,0,0,1-.27.13l-5.1,1.36a.29.29,0,0,1-.26-.08A.39.39,0,0,1,11,9.3V2.73a.39.39,0,0,1,.08-.23.6.6,0,0,1,.28-.13L16.46,1a.31.31,0,0,1,.26.09.35.35,0,0,1,.1.27V7.95A.41.41,0,0,1,16.73,8.17Z"/><path class="cls-3" d="M26.73,14.42a.57.57,0,0,1-.27.13l-5.1,1.36a.29.29,0,0,1-.26-.08.39.39,0,0,1-.1-.27V9a.39.39,0,0,1,.08-.23.6.6,0,0,1,.28-.13l5.1-1.36a.31.31,0,0,1,.26.09.35.35,0,0,1,.1.27V14.2a.41.41,0,0,1-.09.23"/><path class="cls-4" d="M26.73,14.42a.57.57,0,0,1-.27.13l-5.1,1.36a.29.29,0,0,1-.26-.08.39.39,0,0,1-.1-.27V9a.39.39,0,0,1,.08-.23.6.6,0,0,1,.28-.13l5.1-1.36a.31.31,0,0,1,.26.09.35.35,0,0,1,.1.27V14.2A.41.41,0,0,1,26.73,14.42Z"/></g></g></svg>