<svg xmlns="http://www.w3.org/2000/svg" viewBox="0 0 79.6 44.54"><defs><style>.cls-1{fill:none;stroke:#fff;stroke-miterlimit:10;stroke-width:3px;}.cls-2{fill:#00e9ff;}.cls-3{fill:#fff;}</style></defs><title>Ativo 3</title><g id="Camada_2" data-name="Camada 2"><g id="Camada_1-2" data-name="Camada 1"><path class="cls-1" d="M41.84,29.23l-15.68-7,15.66-7a20.77,20.77,0,1,0,0,14Z"/><path class="cls-2" d="M59.43,14.94,43.77,22l15.67,7a16.75,16.75,0,0,0,1.93-6.8,11.73,11.73,0,0,0-1.95-7.17"/><path class="cls-1" d="M59.43,14.94,43.77,22l15.67,7a16.75,16.75,0,0,0,1.93-6.8A11.73,11.73,0,0,0,59.43,14.94Z"/><path class="cls-2" d="M76.14,14.15l-7.57,3.39a12.71,12.71,0,0,1,.78,4.92A13.47,13.47,0,0,1,69,25l7.14,3.17a16.74,16.74,0,0,0,1.93-6.8,11.73,11.73,0,0,0-1.95-7.17"/><path class="cls-1" d="M76.14,14.15l-7.57,3.39a12.7,12.7,0,0,1,.78,4.93A13.47,13.47,0,0,1,69,25l7.14,3.17a16.74,16.74,0,0,0,1.93-6.8A11.73,11.73,0,0,0,76.14,14.15Z"/><path class="cls-3" d="M24.87,8.73c-3,.39-2.38,5,.6,4.63s2.38-5-.6-4.63"/></g></g></svg>