<?xml version="1.0" encoding="utf-8"?>
<!-- Generator: Adobe Illustrator 19.0.0, SVG Export Plug-In . SVG Version: 6.00 Build 0)  -->
<svg version="1.1"
	 id="svg3070" inkscape:version="0.48.0 r9654" sodipodi:docname="New document 4" xmlns:rdf="http://www.w3.org/1999/02/22-rdf-syntax-ns#" xmlns:cc="http://creativecommons.org/ns#" xmlns:svg="http://www.w3.org/2000/svg" xmlns:dc="http://purl.org/dc/elements/1.1/" xmlns:sodipodi="http://sodipodi.sourceforge.net/DTD/sodipodi-0.dtd" xmlns:inkscape="http://www.inkscape.org/namespaces/inkscape"
	 xmlns="http://www.w3.org/2000/svg" xmlns:xlink="http://www.w3.org/1999/xlink" x="40px" y="40px" viewBox="-622 985.5 75.8 76.2"
	 style="enable-background:new -622 985.5 75.8 76.2;" xml:space="preserve">
<style type="text/css">
	.st0{fill:#006699;}
	.st1{fill:#FFFFFF;}
</style>
<sodipodi:namedview  bordercolor="#666666" inkscape:zoom="2.8" fit-margin-left="0" inkscape:cx="142.93233" inkscape:cy="33.703355" borderopacity="1.0" id="base" fit-margin-top="0" pagecolor="#ffffff" showgrid="false" fit-margin-bottom="0" inkscape:window-x="-8" inkscape:window-y="-8" fit-margin-right="0" inkscape:window-maximized="1" inkscape:current-layer="layer1" inkscape:document-units="px" inkscape:window-width="1280" inkscape:pageshadow="2" inkscape:window-height="750" inkscape:pageopacity="0.0">
	</sodipodi:namedview>
<g id="g3019" transform="matrix(1.018827,0,0,-1.018827,170.5996,498.03288)">
	<path id="path14" inkscape:connector-curvature="0" class="st0" d="M-778-483.9c0,3,2.5,5.4,5.5,5.4h63.4c3,0,5.5-2.4,5.5-5.4V-548
		c0-3-2.5-5.4-5.5-5.4h-63.4c-3,0-5.5,2.4-5.5,5.4V-483.9z"/>
	<path id="path28" inkscape:connector-curvature="0" class="st1" d="M-755.4-541.1v33.8h-11.2v-33.8H-755.4z M-761-502.7
		c3.9,0,6.4,2.6,6.4,5.8c-0.1,3.3-2.4,5.8-6.3,5.8c-3.8,0-6.4-2.5-6.4-5.8C-767.3-500.1-764.9-502.7-761-502.7L-761-502.7
		L-761-502.7z"/>
	<path id="path30" inkscape:connector-curvature="0" class="st1" d="M-749.2-541.1h11.2v18.9c0,1,0.1,2,0.4,2.7
		c0.8,2,2.7,4.1,5.8,4.1c4.1,0,5.7-3.1,5.7-7.6v-18.1h11.2v19.4c0,10.4-5.5,15.2-12.9,15.2c-6.1,0-8.7-3.4-10.2-5.7h0.1v4.9h-11.2
		C-749-510.5-749.2-541.1-749.2-541.1L-749.2-541.1z"/>
</g>
</svg>
