<svg xmlns="http://www.w3.org/2000/svg" viewBox="0 0 46.27 70.03"><defs><style>.cls-1{fill:none;stroke:#fff;stroke-miterlimit:10;stroke-width:3px;}.cls-2{fill:#00008c;}.cls-3{fill:#c200ff;}</style></defs><title>Ativo 2</title><g id="Camada_2" data-name="Camada 2"><g id="Camada_1-2" data-name="Camada 1"><line class="cls-1" x1="8.11" y1="68.53" x2="32.43" y2="68.53"/><path class="cls-2" d="M26.94,38.48a6.67,6.67,0,1,1-6.67-6.67,6.67,6.67,0,0,1,6.67,6.67"/><circle class="cls-1" cx="20.27" cy="38.48" r="6.67"/><circle class="cls-1" cx="38.11" cy="22.66" r="6.67"/><circle class="cls-1" cx="6.77" cy="20.33" r="5.27" transform="translate(-5.68 2.89) rotate(-17.11)"/><circle class="cls-1" cx="18.77" cy="5.32" r="3.82" transform="translate(-0.74 5.75) rotate(-17.1)"/><polygon class="cls-3" points="24.93 61.78 15.68 61.78 13.02 37.76 27.85 37.76 24.93 61.78"/><polygon class="cls-1" points="24.93 61.78 15.68 61.78 13.02 37.76 27.85 37.76 24.93 61.78"/><polyline class="cls-1" points="20.27 31.81 21.84 21.92 27.18 18.59"/></g></g></svg>