<svg xmlns="http://www.w3.org/2000/svg" viewBox="0 0 40.67 59.16"><defs><style>.cls-1,.cls-2{fill:none;stroke:#fff;stroke-miterlimit:10;}.cls-1{stroke-width:3px;}.cls-2{stroke-width:2px;}.cls-3{fill:#5a00ff;}</style></defs><title>Ativo 1</title><g id="Camada_2" data-name="Camada 2"><g id="Camada_1-2" data-name="Camada 1"><path class="cls-1" d="M10,8.64S12.88,24.86,20.4,22.84,30.74,3.07,30.74,3.07"/><line class="cls-2" x1="20.4" y1="22.84" x2="20.28" y2="31.73"/><polygon class="cls-3" points="27.84 38.74 18.91 44.01 15.05 30.88 23.99 25.61 27.84 38.74"/><polygon class="cls-2" points="27.84 38.74 18.91 44.01 15.05 30.88 23.99 25.61 27.84 38.74"/><path class="cls-1" d="M38.61,48a3.63,3.63,0,0,1-1.76.85l-33,8.79a1.89,1.89,0,0,1-1.68-.54,2.53,2.53,0,0,1-.63-1.78V12.69A2.6,2.6,0,0,1,2,11.21a3.94,3.94,0,0,1,1.84-.85L14.7,7.45l5.86,6.32,5-9.23,11.29-3a2,2,0,0,1,1.67.6,2.31,2.31,0,0,1,.63,1.77V46.51A2.65,2.65,0,0,1,38.61,48Z"/></g></g></svg>